<svg width="900" height="520" viewBox="0 0 900 520" fill="none" xmlns="http://www.w3.org/2000/svg">
  <defs>
    <linearGradient id="bg" x1="0" y1="0" x2="900" y2="520" gradientUnits="userSpaceOnUse">
      <stop stop-color="#F8FAFC"/>
      <stop offset="1" stop-color="#E2E8F0"/>
    </linearGradient>
    <linearGradient id="accent" x1="150" y1="120" x2="740" y2="420" gradientUnits="userSpaceOnUse">
      <stop stop-color="#14532D" stop-opacity="0.85"/>
      <stop offset="1" stop-color="#14532D" stop-opacity="0.35"/>
    </linearGradient>
    <filter id="softShadow" x="-20%" y="-20%" width="140%" height="140%">
      <feGaussianBlur stdDeviation="10" result="blur"/>
      <feColorMatrix in="blur" type="matrix"
        values="0 0 0 0 0
                0 0 0 0 0
                0 0 0 0 0
                0 0 0 0.18 0" result="shadow"/>
      <feBlend in="SourceGraphic" in2="shadow" mode="normal"/>
    </filter>
  </defs>

  <rect x="0" y="0" width="900" height="520" rx="36" fill="url(#bg)"/>

  <!-- simple car silhouette -->
  <g filter="url(#softShadow)">
    <path
      d="M188 310c10-46 44-104 92-126 44-20 92-28 170-28h70c72 0 122 16 162 46 30 22 54 62 68 108l10 0c20 0 36 16 36 36v34c0 18-14 32-32 32h-38c-8 34-38 60-74 60-38 0-70-28-76-66H324c-6 38-38 66-76 66-36 0-66-26-74-60h-38c-18 0-32-14-32-32v-34c0-20 16-36 36-36h48z"
      fill="url(#accent)"
      stroke="#0F3D2E"
      stroke-opacity="0.35"
      stroke-width="2"
    />
    <path
      d="M308 206h316c-10-18-28-36-54-46-34-14-74-18-114-18h-26c-56 0-112 6-156 24-20 8-38 24-46 40z"
      fill="#FFFFFF"
      fill-opacity="0.35"
    />
    <rect x="350" y="220" width="210" height="44" rx="10" fill="#FFFFFF" fill-opacity="0.25"/>
    <rect x="580" y="220" width="86" height="44" rx="10" fill="#FFFFFF" fill-opacity="0.18"/>
    <circle cx="286" cy="390" r="46" fill="#0B1220" fill-opacity="0.35"/>
    <circle cx="286" cy="390" r="26" fill="#0B1220" fill-opacity="0.55"/>
    <circle cx="676" cy="390" r="46" fill="#0B1220" fill-opacity="0.35"/>
    <circle cx="676" cy="390" r="26" fill="#0B1220" fill-opacity="0.55"/>
  </g>

  <path d="M164 438h572" stroke="#0B1220" stroke-opacity="0.12" stroke-width="2" stroke-linecap="round"/>
</svg>

